<svg width="134" height="96" viewBox="0 0 134 96" fill="none" xmlns="http://www.w3.org/2000/svg">
<path d="M8.40799 96L41.304 0.639984H63.832L96.728 96H77.784L71 75.52H34.136L27.224 96H8.40799ZM39.128 60.16H66.008L50.136 12.672H55L39.128 60.16Z" fill="black"/>
<path d="M96.2344 0.639648C102.72 0.639648 108.437 1.83429 113.387 4.22363C118.421 6.52758 122.346 9.94135 125.162 14.4639C127.978 18.9011 129.387 24.3198 129.387 30.7197C129.387 37.2904 127.808 42.8803 124.65 47.4883C121.578 52.0961 117.397 55.5089 112.106 57.7275L133.994 96H114.282L94.583 60.7998H89.6074L84.3467 45.4404H96.4902C99.6475 45.4404 102.379 44.8431 104.683 43.6484C106.987 42.3685 108.779 40.6189 110.059 38.4004C111.339 36.1817 111.979 33.6211 111.979 30.7197C111.978 27.7332 111.339 25.1733 110.059 23.04C108.779 20.8214 106.987 19.1146 104.683 17.9199C102.379 16.6399 99.6476 16 96.4902 16H78.1865V27.458L69 0.639648H96.2344Z" fill="#1C1C1C" fill-opacity="0.6"/>
<path d="M8.55841 79.1532L0.302719 71.0186L1.09367 68.685L11.6593 70.0044L11.0211 71.8872L8.76036 71.5791L7.47058 75.3845L9.25049 77.1112L8.55841 79.1532ZM6.13115 74.1027L7.06591 71.3448L1.85422 70.6279L2.07354 70.1553L6.13115 74.1027Z" fill="black"/>
<path d="M14.5085 70.3209L5.11106 65.5984L5.66832 63.9543L7.03739 64.6253L6.52704 64.8662C6.23398 64.4515 6.0592 63.9931 6.00269 63.4911C5.94035 62.9772 5.99906 62.4551 6.17882 61.9248C6.40651 61.253 6.76636 60.7146 7.25834 60.3098C7.74149 59.902 8.29768 59.6421 8.92692 59.5302C9.55914 59.4094 10.2067 59.4614 10.8697 59.6861C11.4177 59.8718 11.9004 60.1487 12.3176 60.5168C12.7379 60.8761 13.0737 61.2954 13.3251 61.7748C13.5677 62.2512 13.7157 62.7596 13.769 63.3C13.8136 63.8374 13.7444 64.3757 13.5617 64.9149C13.3699 65.4806 13.0901 65.9574 12.7222 66.3451C12.3484 66.721 11.9266 66.9624 11.4567 67.0692L11.2644 66.5901L15.1241 68.5044L14.5085 70.3209ZM11.9122 64.548C12.059 64.1149 12.0832 63.6944 11.9849 63.2866C11.8778 62.8758 11.6745 62.5162 11.375 62.2077C11.0785 61.8904 10.7092 61.6568 10.2673 61.507C9.88717 61.3782 9.52431 61.3439 9.17869 61.4042C8.83605 61.4556 8.53432 61.5898 8.2735 61.8069C8.01267 62.024 7.81785 62.3226 7.68902 62.7027C7.54521 63.127 7.52687 63.5445 7.63401 63.9553C7.7353 64.3543 7.9357 64.708 8.2352 65.0165C8.5347 65.3249 8.90543 65.5541 9.3474 65.7039C9.7275 65.8327 10.0933 65.8729 10.4448 65.8245C10.7904 65.7643 11.0936 65.6256 11.3544 65.4085C11.6064 65.1884 11.7923 64.9016 11.9122 64.548Z" fill="black"/>
<path d="M17.5235 61.4254L8.12609 56.7029L8.68335 55.0588L10.0524 55.7298L9.54207 55.9707C9.24901 55.556 9.07423 55.0976 9.01772 54.5956C8.95538 54.0817 9.01409 53.5596 9.19385 53.0292C9.42155 52.3574 9.78139 51.8191 10.2734 51.4143C10.7565 51.0065 11.3127 50.7466 11.9419 50.6347C12.5742 50.5139 13.2218 50.5658 13.8847 50.7905C14.4328 50.9763 14.9154 51.2532 15.3327 51.6213C15.7529 51.9806 16.0888 52.3999 16.3402 52.8793C16.5828 53.3557 16.7307 53.8641 16.7841 54.4045C16.8286 54.9419 16.7595 55.4802 16.5767 56.0194C16.385 56.5851 16.1051 57.0618 15.7372 57.4496C15.3634 57.8255 14.9416 58.0669 14.4718 58.1737L14.2794 57.6946L18.1392 59.6089L17.5235 61.4254ZM14.9272 55.6525C15.074 55.2193 15.0983 54.7989 15 54.3911C14.8928 53.9803 14.6895 53.6207 14.39 53.3122C14.0935 52.9949 13.7243 52.7613 13.2823 52.6115C12.9022 52.4827 12.5393 52.4484 12.1937 52.5087C11.8511 52.5601 11.5494 52.6943 11.2885 52.9114C11.0277 53.1285 10.8329 53.4271 10.704 53.8072C10.5602 54.2315 10.5419 54.649 10.649 55.0598C10.7503 55.4588 10.9507 55.8125 11.2502 56.121C11.5497 56.4294 11.9205 56.6586 12.3624 56.8084C12.7425 56.9372 13.1083 56.9774 13.4598 56.929C13.8054 56.8688 14.1086 56.7301 14.3695 56.513C14.6214 56.2929 14.8074 56.0061 14.9272 55.6525Z" fill="black"/>
<path d="M18.9716 48.9536C18.8158 49.4133 18.6013 49.7989 18.3282 50.1103C18.0581 50.413 17.7428 50.6165 17.3821 50.721C17.0215 50.8254 16.6291 50.8057 16.2048 50.6619C15.7451 50.5061 15.3907 50.2579 15.1416 49.9172C14.8924 49.5765 14.7351 49.1684 14.6696 48.6929C14.5953 48.2144 14.6082 47.6965 14.7084 47.1391L15.1463 44.5824L16.4273 45.1644L16.0932 47.3276C16.0442 47.6757 16.0663 47.9886 16.1593 48.2665C16.2435 48.5415 16.427 48.7268 16.7099 48.8227C16.9574 48.9066 17.173 48.8811 17.3567 48.7463C17.5433 48.6026 17.6846 48.3893 17.7805 48.1065C17.9003 47.7529 17.9286 47.4077 17.8654 47.0709C17.7933 46.7311 17.6517 46.422 17.4406 46.1435C17.2295 45.865 16.9664 45.6526 16.6513 45.5064L14.9335 44.6433C14.7068 44.5271 14.4944 44.4994 14.2964 44.5604C14.0925 44.6096 13.9134 44.7164 13.7591 44.8809C13.6048 45.0454 13.4887 45.2426 13.4108 45.4724C13.276 45.8702 13.2607 46.2641 13.365 46.6542C13.4723 47.0355 13.661 47.3656 13.9311 47.6444L12.6992 48.7494C12.382 48.4349 12.1448 48.0737 11.9874 47.6656C11.8243 47.2456 11.7395 46.798 11.733 46.3228C11.7207 45.8358 11.7969 45.3491 11.9617 44.863C12.1594 44.2796 12.4496 43.8014 12.8322 43.4285C13.2179 43.0468 13.65 42.804 14.1287 42.7001C14.6073 42.5963 15.0984 42.674 15.6018 42.9333L20.0753 45.1739L19.5135 46.8313L18.3389 46.241L18.5004 45.8079C18.7349 46.1338 18.9074 46.4682 19.0178 46.8111C19.1282 47.154 19.1766 47.5055 19.163 47.8655C19.1612 48.2197 19.0974 48.5824 18.9716 48.9536Z" fill="black"/>
<path d="M20.6238 43.5556L13.7524 40.1031L14.3097 38.459L15.8421 39.2149L15.563 39.2534C15.1077 38.8231 14.8384 38.382 14.755 37.93C14.6747 37.4691 14.7199 36.9868 14.8907 36.4829L15.0345 36.0587L16.5007 36.7921L16.2895 37.4153C16.1217 37.9103 16.1385 38.3841 16.3399 38.8367C16.5354 39.2774 16.9261 39.6513 17.5119 39.9583L21.217 41.8054L20.6238 43.5556Z" fill="black"/>
<path d="M23.7266 34.9245C23.4869 35.6316 23.1225 36.198 22.6334 36.6235C22.1472 37.0401 21.5895 37.3044 20.9603 37.4164C20.3252 37.5165 19.6762 37.4542 19.0133 37.2295C18.4652 37.0437 17.984 36.7771 17.5696 36.4297C17.1493 36.0705 16.812 35.6556 16.5576 35.185C16.3062 34.7056 16.1567 34.2016 16.1092 33.673C16.0528 33.1415 16.1175 32.6017 16.3033 32.0537C16.543 31.3465 16.8925 30.7949 17.352 30.3987C17.8115 30.0026 18.3322 29.7602 18.9141 29.6717C19.4871 29.5801 20.0786 29.6377 20.6885 29.8444C20.8476 29.8983 21.0067 29.967 21.1656 30.0505C21.3246 30.1339 21.4806 30.2262 21.6335 30.3273L19.746 35.8961L18.4516 35.3539L20.002 30.7795L20.3066 31.8436C19.9477 31.5939 19.5972 31.4652 19.2548 31.4576C18.9067 31.4381 18.5963 31.5251 18.3238 31.7185C18.0543 31.9031 17.8566 32.181 17.7308 32.5523C17.566 33.0384 17.552 33.4722 17.6888 33.8537C17.8286 34.2263 18.0823 34.5537 18.4498 34.8359C18.8114 35.1063 19.2442 35.3269 19.748 35.4977C20.137 35.6295 20.4968 35.6726 20.8276 35.6271C21.1614 35.5727 21.4484 35.4384 21.6886 35.2241C21.9199 35.0069 22.0954 34.7215 22.2153 34.3679C22.3501 33.9701 22.3801 33.591 22.3051 33.2305C22.2302 32.8701 22.0857 32.555 21.8716 32.2853L23.055 31.1491C23.3428 31.4339 23.5653 31.7803 23.7227 32.1884C23.883 32.5877 23.9664 33.0249 23.9728 33.5001C23.9735 33.9635 23.8914 34.4383 23.7266 34.9245Z" fill="black"/>
<path d="M25.0608 30.4648L18.1894 27.0124L18.7421 25.3815L20.0979 26.048L19.7703 26.0552C19.4062 25.6756 19.1899 25.2524 19.1214 24.7857C19.0441 24.316 19.0878 23.8381 19.2526 23.352C19.4384 22.8039 19.7238 22.3833 20.109 22.0901C20.4972 21.788 20.9422 21.6235 21.4441 21.5965C21.9401 21.5577 22.4487 21.6709 22.9698 21.9362L27.2269 24.0739L26.6382 25.8109L22.571 23.7671C22.1323 23.5494 21.737 23.5091 21.3851 23.646C21.0332 23.783 20.7853 24.0636 20.6415 24.4879C20.5456 24.7708 20.522 25.0584 20.5707 25.3509C20.6136 25.6315 20.723 25.8903 20.8989 26.1273C21.0778 26.3554 21.3173 26.55 21.6176 26.7109L25.6495 28.7279L25.0608 30.4648Z" fill="black"/>
<path d="M28.9457 19.2643C28.6641 20.0952 28.2246 20.6361 27.6271 20.8869C27.0238 21.1259 26.3379 21.056 25.5695 20.6773L22.5754 19.1747L22.1574 20.4078L20.678 19.6698L20.7095 19.577C20.8293 19.2234 20.828 18.8929 20.7056 18.5853C20.5832 18.2777 20.3527 18.0419 20.0141 17.8779L19.5327 17.6408L20.1304 15.8773L21.6982 16.66L22.2509 15.0291L23.7303 15.7671L23.1731 17.4112L26.1539 18.9093C26.3895 19.0286 26.5943 19.0931 26.7683 19.1028C26.9454 19.1037 27.0992 19.0425 27.2297 18.9192C27.3632 18.787 27.4764 18.584 27.5692 18.3099C27.5962 18.2304 27.6232 18.1508 27.6501 18.0713C27.6683 17.9887 27.6865 17.8914 27.7047 17.7794L29.1448 18.4153C29.1382 18.551 29.1124 18.6999 29.0673 18.862C29.0252 19.0153 28.9847 19.1494 28.9457 19.2643Z" fill="black"/>
<path d="M29.5943 17.0892L20.0335 12.2817L20.6267 10.5315L30.1875 15.339L29.5943 17.0892Z" fill="black"/>
<path d="M33.8454 14.1854C33.7705 14.4064 33.6795 14.6022 33.5723 14.7729C33.4771 14.9377 33.3701 15.0788 33.2514 15.1963L31.8687 14.6093C31.9341 14.5034 32.0012 14.3783 32.0698 14.234C32.1502 14.0839 32.2099 13.9514 32.2489 13.8365C32.3388 13.5713 32.365 13.3338 32.3277 13.1241C32.3023 12.9085 32.228 12.7059 32.105 12.5164C31.9938 12.3211 31.8605 12.133 31.705 11.9521L30.8644 10.9429L32.2645 11.6096L23.6392 10.9331L24.2459 9.14313L30.5738 9.75054L30.3401 10.44L25.5087 5.41732L26.1739 3.45497L32.722 10.4343C33.0978 10.8376 33.3923 11.2479 33.6057 11.6651C33.8309 12.0765 33.9616 12.4904 33.9979 12.9067C34.043 13.326 33.9922 13.7523 33.8454 14.1854Z" fill="black"/>
</svg>
